<svg height="512pt" viewBox="0 0 512.001 512" width="512pt" xmlns="http://www.w3.org/2000/svg"><path d="m310.160156 63.59375v45.363281c-13.285156 13.28125-20.730468 20.730469-34.011718 34.011719h-40.300782c-13.285156-13.285156-20.730468-20.730469-34.011718-34.011719v-45.363281c0-29.914062 24.25-54.164062 54.160156-54.164062 29.914062 0 54.164062 24.25 54.164062 54.164062zm0 0" fill="#ffdaaa"/><path d="m268.75 301.652344v114.039062c4.277344 4.28125 6.679688 6.679688 10.957031 10.960938h35.082031l.066407-125zm0 0" fill="#787680"/><path d="m380.246094 290.480469c-35.257813 0-53.839844-7.175781-70.234375-13.511719-14.566407-5.628906-27.148438-10.488281-54.015625-10.488281-26.867188 0-39.449219 4.859375-54.015625 10.488281-16.394531 6.332031-34.976563 13.511719-70.234375 13.511719-35.253906 0-53.835938-7.175781-70.230469-13.511719-14.566406-5.628906-27.148437-10.488281-54.015625-10.488281v-45c35.257812 0 53.839844 7.179687 70.230469 13.511719 14.570312 5.628906 27.148437 10.488281 54.015625 10.488281 26.867187 0 39.449218-4.859375 54.015625-10.488281 16.394531-6.332032 34.976562-13.511719 70.234375-13.511719 35.257812 0 53.839844 7.179687 70.234375 13.511719 14.566406 5.628906 27.148437 10.488281 54.015625 10.488281 26.871094 0 39.449218-4.859375 54.019531-10.488281 16.394531-6.332032 34.976563-13.511719 70.234375-13.511719v45c-26.867188 0-39.449219 4.859375-54.019531 10.488281-16.390625 6.335938-34.972657 13.511719-70.234375 13.511719zm0 0" fill="#7c84e8"/><path d="m314.894531 278.84375-.039062 22.808594h-46.105469v28.613281l-25.507812.433594v162.828125c-4.277344 4.277344-6.675782 6.679687-10.957032 10.957031h-35.082031l-.125-225.636719c1.664063-.628906 3.292969-1.257812 4.902344-1.878906 14.566406-5.628906 27.148437-10.488281 54.015625-10.488281 26.867187 0 39.449218 4.859375 54.019531 10.488281 1.597656.621094 3.222656 1.246094 4.878906 1.875zm-117.84375-48.066406c14.085938-4.929688 31.441407-9.296875 58.945313-9.296875 27.496094 0 44.851562 4.367187 58.9375 9.292969l.027344-37.707032 81.65625-141.429687-7.738282-28.875-21.683594-12.515625-76.628906 132.722656h-69.140625l-76.628906-132.722656-21.683594 12.519531-7.734375 28.871094 81.652344 141.429687zm0 0" fill="#787680"/><g fill="#57565c"><path d="m389.226562 24.050781-.347656-1.285156-21.683594-12.519531-76.695312 132.84375h-60.214844l34.304688 78.660156c3.597656-.175781 7.394531-.269531 11.40625-.269531 4.011718 0 7.808594.09375 10.152344.269531l34.300781-78.660156zm0 0"/><path d="m201.980469 276.96875c-1.609375.621094-3.238281 1.25-4.902344 1.882812l.125 225.632813h30l-.125-225.632813c1.664063-.632812 3.292969-1.261718 4.902344-1.882812 11.546875-4.460938 21.851562-8.441406 39.015625-9.898438-4.484375-.378906-9.4375-.589843-15-.589843-26.867188 0-39.449219 4.859375-54.015625 10.488281zm0 0"/><path d="m227.03125 193.066406-81.652344-141.429687 7.390625-27.585938-7.972656-13.804687-21.683594 12.515625-7.734375 28.875 81.652344 141.429687.019531 37.710938c8.367188-2.925782 17.886719-5.65625 29.996094-7.390625zm0 0"/></g><path d="m230.285156 143.089844h-20l34.300782 78.660156c3.601562-.175781 7.398437-.269531 11.410156-.269531 2.960937 0 5.804687.050781 8.539062.148437zm0 0" fill="#d8d7da"/><path d="m265.996094 221.683594c.472656.023437.941406.042968 1.40625.066406l.054687-.121094c-.492187.019532-.976562.035156-1.460937.054688zm0 0" fill="#d8d7da"/><path d="m255.996094 221.480469c4.011718 0 7.804687.09375 11.40625.269531l34.300781-78.660156h-91.417969l34.300782 78.660156c3.601562-.175781 7.398437-.269531 11.410156-.269531zm0 0" fill="#fff"/><path d="m255.996094 221.480469c4.011718 0 7.804687.09375 11.40625.269531l5.292968-12.136719-6.382812-66.523437h-20.632812l-6.382813 66.523437 5.289063 12.136719c3.601562-.175781 7.398437-.269531 11.410156-.269531zm0 0" fill="#ff7956"/><path d="m231.835938 63.59375c0-24.710938 16.546874-45.554688 39.160156-52.058594-4.761719-1.371094-9.796875-2.105468-15-2.105468-29.910156 0-54.160156 24.25-54.160156 54.164062v45.363281l34.011718 34.011719h30l-34.011718-34.011719zm0 0" fill="#ffbb85"/><path d="m298.75 415.695312v-114.042968h-30v114.042968c4.277344 4.277344 6.679688 6.675782 10.957031 10.957032h30c-4.277343-4.28125-6.679687-6.679688-10.957031-10.957032zm0 0" fill="#57565c"/><path d="m91.515625 276.96875c-14.566406-5.628906-27.148437-10.488281-54.015625-10.488281v-42.9375c-8.527344-1.277344-18.355469-2.0625-30-2.0625v45c26.867188 0 39.449219 4.859375 54.015625 10.488281 16.394531 6.332031 34.976563 13.511719 70.230469 13.511719 5.371094 0 10.355468-.164063 15-.46875-25.863282-1.695313-41.335938-7.671875-55.230469-13.042969zm0 0" fill="#515be0"/><path d="m261.25 418.800781 15.351562 15.351563h45.683594l.074219-140h-61.109375zm15-109.648437h31.101562l-.058593 110h-24.476563l-6.566406-6.566406zm0 0"/><path d="m504.5 213.980469c-36.65625 0-55.933594 7.445312-72.9375 14.015625-14.441406 5.578125-25.847656 9.984375-51.316406 9.984375s-36.875-4.40625-51.3125-9.984375c-17.007813-6.566406-36.28125-14.015625-72.9375-14.015625s-55.929688 7.445312-72.9375 14.015625c-14.4375 5.578125-25.84375 9.984375-51.3125 9.984375s-36.875-4.40625-51.3125-9.984375c-17.003906-6.570313-36.277344-14.015625-72.933594-14.015625h-7.5v60h7.5c25.46875 0 36.875 4.40625 51.3125 9.984375 17.003906 6.570312 36.277344 14.015625 72.9375 14.015625 36.65625 0 55.929688-7.445313 72.933594-14.015625 14.4375-5.578125 25.84375-9.984375 51.3125-9.984375 25.472656 0 36.875 4.40625 51.316406 9.984375 17.003906 6.570312 36.277344 14.015625 72.9375 14.015625 36.65625 0 55.933594-7.445313 72.9375-14.015625 14.4375-5.578125 25.84375-9.984375 51.3125-9.984375h7.5v-60zm-7.5 45.136719c-50.320312 1.851562-54.617188 23.863281-116.753906 23.863281-33.859375 0-51.75-6.910157-67.53125-13.007813-14.632813-5.652344-28.453125-10.992187-56.71875-10.992187s-42.089844 5.339843-56.71875 10.992187c-15.78125 6.097656-33.671875 13.007813-67.53125 13.007813-62.15625 0-66.402344-22.011719-116.746094-23.863281v-30.019532c58.515625 1.882813 60.667969 23.882813 116.746094 23.882813 28.265625 0 42.089844-5.339844 56.722656-10.992188 15.78125-6.097656 33.667969-13.007812 67.527344-13.007812s51.746094 6.910156 67.53125 13.007812c14.632812 5.652344 28.453125 10.992188 56.71875 10.992188 56.058594 0 58.253906-22 116.753906-23.882813zm0 0"/><path d="m189.539062 209.714844 15-.007813-.011718-18.652343-81.101563-140.476563 6.128907-22.871094 12.5-7.214843 66.453124 115.097656h-9.671874l30.382812 69.671875 8.125-3.542969 10.152344.972656 4.996094-52.101562h7.007812l5 52.101562 10.152344-.972656 8.125 3.542969 30.382812-69.671875h-9.667968l66.449218-115.097656 12.496094 7.214843 6.128906 22.871094-81.101562 140.476563-.015625 18.652343 15 .011719.011719-14.636719 82.203124-142.382812-9.34375-34.875-30.871093-17.824219-46.789063 81.046875v-17.453125c0-34-27.664062-61.664062-61.664062-61.664062s-61.660156 27.664062-61.660156 61.664062v17.453125l-46.792969-81.046875-30.871094 17.824219-9.34375 34.875 82.203125 142.378906zm45.054688-29.640625-12.855469-29.484375h15.6875zm42.800781 0-2.828125-29.484375h15.6875zm-21.398437-163.140625c25.730468 0 46.664062 20.929687 46.664062 46.660156v42.257812l-29.621094 29.617188h-34.085937l-29.617187-29.621094v-42.253906c0-25.730469 20.933593-46.660156 46.660156-46.660156zm0 0"/><path d="m235.742188 490.417969-6.5625 6.566406h-24.480469l-.109375-196.851563-15 .007813.117187 211.84375h45.683594l15.351563-15.351563v-165.933593h-15zm0 0"/><path d="m333.214844 126.457031-12.992188-7.5 20.109375-34.828125 12.988281 7.5zm25.105468-43.488281-12.988281-7.5 7.5-12.992188 12.988281 7.5zm12.5-21.652344-12.988281-7.5 7.5-12.988281 12.988281 7.5zm0 0" fill="#fff"/><path d="m380.230469 275.980469c-7.363281 0-13.925781-.347657-20.066407-1.0625l1.734376-14.898438c5.558593.648438 11.554687.960938 18.332031.960938h.015625c25.472656 0 36.875-4.40625 51.316406-9.984375 11.988281-4.628906 25.574219-9.878906 45.945312-12.4375l1.867188 14.882812c-18.546875 2.328125-30.675781 7.015625-42.40625 11.546875-14.636719 5.652344-28.457031 10.992188-56.722656 10.992188-.003906 0-.007813 0-.015625 0zm-30.574219-2.734375c-5.074219-1.039063-9.957031-2.390625-15.371094-4.253906l4.886719-14.183594c4.78125 1.648437 9.074219 2.835937 13.5 3.746094zm-25.003906-7.824219-1.125-.433594c-4.027344-1.554687-8.1875-3.164062-12.644532-4.679687l4.828126-14.199219c4.746093 1.613281 9.054687 3.277344 13.222656 4.886719l1.128906.4375zm0 0" fill="#fff"/><path d="m271.09375 123.273438-10.605469-10.609376 17.171875-17.167968v-27.714844h15v33.925781zm6.140625-63.96875c-.734375-3.636719-2.417969-7.050782-4.867187-9.878907l11.332031-9.824219c4.144531 4.777344 6.992187 10.566407 8.238281 16.734376zm-10.59375-14.570313c-3.230469-1.832031-6.910156-2.800781-10.644531-2.800781v-15c6.320312 0 12.558594 1.640625 18.039062 4.75zm0 0" fill="#fff"/></svg>